PathFileType	3	(X/Y/Z)	D:\minhoCalibration\240510\subject1_KPNP\preferred\preferred16.trc
DataRate	CameraRate	NumFrames	NumMarkers	Units	OrigDataRate	OrigDataStartFrame	OrigNumFrames
200.0	200.0	27	10	mm	200.0	334	185	
Frame#	Time	Left_Ankle_Outer1			Left_Ankle_Inner1			Left_Knee_Outer1			Left_Knee_Inner1			Left_Wrist1			Right_Wrist1			Right_Knee_Inner1			Right_Knee_Outer1			Right_Ankle_Inner1			Right_Ankle_Outer1			
		X1	Y1	Z1	X2	Y2	Z2	X3	Y3	Z3	X4	Y4	Z4	X5	Y5	Z5	X6	Y6	Z6	X7	Y7	Z7	X8	Y8	Z8	X9	Y9	Z9	X10	Y10	Z10	
334	1.66	-519.56744	144.26712	-557.0705	-568.85681	145.02811	-528.25085	-472.85474	569.72003	-383.86932	-584.10425	529.61731	-394.06613	-506.99585	944.96375	-609.27142	-747.04358	961.1701	-869.32068	-758.2981	485.2229	-861.49677	-797.53925	530.388	-956.20013	-669.60095	108.77915	-1081.4542	-752.31525	115.46502	-1160.7461
335	1.665	-519.86346	143.73494	-556.57709	-569.09515	144.58609	-528.00452	-471.50668	567.97919	-381.26944	-582.8728	528.5401	-390.96198	-504.45239	943.19153	-606.75049	-746.38727	960.37128	-865.0777	-759.77405	484.16177	-857.33856	-799.14166	529.64392	-952.15686	-669.8241	109.46796	-1080.6088	-752.23541	116.80276	-1159.9299
336	1.67	-519.61676	143.2841	-556.24231	-568.79144	144.02451	-527.92017	-470.41089	566.15698	-378.67587	-581.79736	527.38904	-387.9798	-501.88834	941.50421	-604.25897	-746.1972	958.77301	-860.1991	-761.0788	483.03201	-853.27472	-800.81128	528.94446	-948.0434	-670.15839	110.35178	-1079.7881	-752.45923	117.9165	-1158.8535
337	1.675	-518.80969	142.71454	-555.89783	-568.12823	143.42212	-528.02161	-469.45825	564.31201	-376.08682	-580.95795	526.09631	-385.34875	-499.33142	939.78229	-601.69513	-745.52637	957.8454	-855.4873	-762.60944	482.0224	-848.85553	-802.75513	528.38	-943.6557	-670.53937	111.49025	-1078.8152	-753.01221	119.06688	-1158.0776
338	1.68	-517.43463	142.10088	-555.69519	-567.09155	142.752	-528.7132	-468.73883	562.43591	-373.57797	-580.07782	524.84033	-382.94531	-496.55917	938.33124	-599.05115	-744.58496	957.25769	-852.19897	-764.34534	481.06366	-844.133	-804.78796	527.84796	-939.10339	-670.74066	112.62797	-1078.08	-753.29767	120.99063	-1156.928
339	1.685	-515.47339	141.31592	-555.49414	-565.2077	141.97653	-529.16498	-468.19556	560.5661	-371.07358	-579.31573	523.55359	-380.79239	-493.65833	937.02899	-596.38422	-743.98102	956.65039	-846.2334	-766.2135	480.17184	-839.14874	-807.16083	527.51514	-934.29663	-671.77637	114.6608	-1076.5909	-754.14532	122.62161	-1155.954
340	1.69	-513.00574	140.6163	-555.24542	-563.1828	141.11522	-530.03021	-467.84912	558.68726	-368.53934	-578.80554	522.20972	-379.02673	-490.73877	935.90759	-593.58258	-743.2406	955.86945	-841.7674	-768.24402	479.21106	-833.7699	-809.80829	527.29712	-929.11316	-672.14484	116.56355	-1075.6561	-754.6712	125.49086	-1154.5779
341	1.695	-510.17142	139.70123	-554.92609	-560.59052	140.28854	-530.71661	-467.61536	556.76068	-365.97827	-578.41034	520.71832	-377.55972	-487.74933	935.0379	-590.66553	-742.62115	954.81036	-836.07428	-770.57056	478.45761	-827.77527	-812.83374	527.27417	-923.45471	-673.0459	119.19413	-1074.1766	-755.52673	128.24249	-1153.1805
342	1.7	-507.57999	138.29785	-554.2525	-557.77765	139.31212	-531.6817	-467.53043	554.89044	-363.44821	-578.26312	519.22839	-376.49594	-484.68088	934.52002	-587.70905	-741.53156	954.64142	-831.03564	-773.15649	477.90591	-821.33606	-816.2229	527.4082	-917.3869	-674.11365	122.40291	-1072.3441	-756.41473	131.57153	-1151.511
343	1.705	-503.33023	137.79639	-554.62152	-554.65161	138.32333	-532.62164	-467.50281	553.06342	-360.92819	-577.85071	517.6272	-375.72699	-481.1261	934.31958	-584.87109	-740.39923	954.27118	-826.14197	-776.44403	477.92111	-814.40112	-819.9079	527.89087	-910.85687	-675.37134	126.03407	-1070.3049	-757.62421	135.06413	-1149.5088
344	1.71	-499.59549	136.80212	-554.26141	-551.19666	137.37009	-533.45844	-467.53793	551.28491	-358.63177	-577.68115	516.14062	-375.18011	-477.91327	934.32581	-581.72247	-739.39648	954.05133	-821.09515	-779.88654	477.90997	-806.94604	-824.09338	528.5921	-903.65735	-676.71417	130.33731	-1067.8875	-758.88995	139.62796	-1146.8446
345	1.715	-495.66531	135.77452	-553.84442	-547.76495	136.45024	-534.41925	-467.54382	549.56573	-356.43365	-577.17969	514.57721	-374.89572	-474.77518	934.70459	-578.4364	-738.17328	954.1004	-814.62115	-783.81891	478.27423	-798.73645	-828.70917	529.66882	-895.76257	-679.18835	135.05812	-1064.604	-760.28113	144.71289	-1143.7976
346	1.72	-491.59058	134.87595	-553.3573	-544.21295	135.58099	-535.51263	-467.62732	548.00415	-354.43546	-576.96387	512.97205	-374.95053	-471.66296	935.49481	-575.02716	-736.99902	954.1604	-808.94275	-788.28589	479.05667	-789.9201	-833.66077	531.21472	-887.21277	-681.38806	140.42393	-1061.0062	-762.31989	150.00255	-1140.1011
347	1.725	-487.67737	134.02031	-552.92645	-540.82416	134.61389	-536.30255	-467.63672	546.49731	-352.63354	-576.49072	511.53702	-375.26038	-468.57135	936.66516	-571.55414	-735.14142	954.26056	-804.47601	-792.99213	480.15912	-780.27307	-838.95093	533.086	-877.87482	-683.27618	146.21429	-1056.9485	-764.84387	155.62932	-1135.5883
348	1.73	-484.07822	133.23302	-552.47339	-537.40845	133.98932	-537.89752	-467.56253	545.19934	-351.04425	-575.79156	510.23419	-375.63449	-465.56622	938.30713	-567.93347	-733.6048	955.33563	-798.34137	-798.5835	482.24338	-769.96545	-844.67859	535.43341	-867.80194	-686.56787	152.50932	-1051.4994	-767.68854	162.06903	-1130.2188
349	1.735	-480.53818	132.67671	-552.09998	-534.00433	133.49768	-538.89301	-467.36252	544.10333	-349.63672	-575.15259	508.95435	-376.46823	-462.62897	940.26172	-564.19043	-731.63495	955.96796	-792.18268	-804.12915	484.53537	-758.68652	-850.64545	538.16107	-856.93597	-690.01337	159.20076	-1045.4348	-770.98895	169.0265	-1123.9325
350	1.74	-477.4314	132.11916	-551.64062	-531.05219	133.14812	-539.66168	-466.93347	543.32056	-348.439	-574.21497	508.17233	-377.27563	-459.77515	942.58105	-560.35614	-730.42963	956.66077	-785.20917	-810.13715	487.65161	-746.75403	-856.74677	541.18243	-845.24536	-694.03564	166.21062	-1038.2295	-774.88745	176.22194	-1116.718
351	1.745	-474.70773	131.70287	-551.19366	-528.41101	132.89548	-540.15399	-466.32574	542.83167	-347.41867	-572.96771	507.65723	-378.37164	-456.95325	945.20911	-556.44403	-728.24414	958.33301	-781.39795	-816.17993	491.07104	-734.30396	-862.93811	544.56909	-832.85748	-698.60638	173.69572	-1030.0734	-778.96637	183.72447	-1108.7831
352	1.75	-472.35696	131.44003	-550.70178	-526.09631	132.84467	-540.50885	-465.45139	542.58569	-346.68637	-571.85211	507.54578	-379.3522	-454.21365	948.17676	-552.53979	-726.57184	959.62903	-776.70728	-822.87177	496.04721	-721.05756	-869.00867	548.36591	-819.80957	-702.54138	181.65111	-1021.5622	-782.67218	191.82628	-1100.3781
353	1.755	-470.358	131.26762	-550.21289	-524.14526	132.93085	-540.70154	-464.26285	542.64758	-346.34668	-570.19122	507.9801	-380.27319	-451.45563	951.40637	-548.71564	-724.99866	961.43628	-771.39984	-828.98474	500.99127	-707.13867	-874.92816	552.53046	-806.25482	-705.93042	190.0266	-1012.4213	-785.99854	200.57112	-1091.1831
354	1.76	-468.58188	131.15753	-549.67749	-522.66437	132.98178	-540.69373	-462.81671	542.90594	-346.21832	-568.50189	508.46863	-381.22934	-448.58267	954.78937	-545.05029	-723.68158	963.14984	-765.63721	-834.43066	506.26486	-692.24561	-880.63452	557.05469	-791.98883	-709.33698	199.12892	-1002.3643	-789.07129	209.64139	-1081.0773
355	1.765	-466.96625	131.25905	-549.1347	-520.94269	133.32904	-540.61646	-461.19135	543.38806	-346.53348	-566.44733	509.38159	-381.90903	-445.63971	958.33514	-541.55554	-722.45044	964.73248	-762.31097	-839.56	512.22815	-677.27576	-886.00983	561.9024	-777.18311	-712.56738	208.88411	-992.07159	-791.88306	218.92712	-1070.1709
356	1.77	-465.478	131.2245	-548.6001	-519.34833	133.65973	-540.52533	-459.4006	544.0423	-347.27704	-564.38428	510.51962	-382.65286	-442.57364	961.99249	-538.32935	-721.98102	966.81769	-754.38049	-843.755	518.16455	-662.8913	-891.06763	566.96924	-761.76166	-714.36475	219.68701	-981.69336	-794.14105	228.22424	-1058.7039
357	1.775	-463.91324	131.41919	-548.13135	-517.98438	134.02229	-540.34216	-457.28207	544.896	-348.39032	-561.99634	511.76376	-383.45572	-439.1586	965.72052	-535.52527	-721.62524	969.79938	-749.31848	-847.591	525.16431	-646.44348	-895.79169	572.29358	-745.9024	-715.01031	231.75362	-971.0614	-796.10565	237.8625	-1046.7852
358	1.78	-461.76953	132.0648	-548.00305	-516.16412	134.51138	-540.28479	-455.11447	545.94604	-349.94275	-559.48187	513.22595	-384.46756	-435.561	969.54712	-533.10974	-721.31696	972.9317	-742.672	-850.12659	531.71533	-630.19739	-899.86578	577.75061	-729.565	-715.04846	244.48232	-960.45416	-798.43494	247.43214	-1034.0972
359	1.785	-459.99991	132.293	-547.59967	-514.30841	134.99626	-540.31769	-452.74567	547.12421	-351.9389	-556.9024	514.71509	-385.81418	-431.63977	973.49701	-531.26904	-721.95837	976.42389	-735.65161	-851.60406	538.07452	-613.71979	-903.42957	583.40289	-712.70508	-714.55914	257.95117	-949.7113	-801.08899	256.76013	-1021.2336
360	1.79	-458.0784	132.52989	-547.25647	-512.63287	135.40944	-540.09418	-450.16467	548.49017	-354.2728	-554.02234	516.3634	-387.63422	-427.35526	977.45947	-530.15375	-723.07971	980.7113	-727.83331	-852.047	544.29712	-597.01062	-906.35046	589.13507	-695.4267	-713.00037	272.54672	-938.49915	-804.03009	265.2005	-1007.8509
